<svg xmlns="http://www.w3.org/2000/svg" width="320" height="220" viewBox="0 0 320 220" fill="none">
  <defs>
    <linearGradient id="bg" x1="0" y1="0" x2="320" y2="220" gradientUnits="userSpaceOnUse">
      <stop stop-color="#1D4ED8"/>
      <stop offset="1" stop-color="#22D3EE"/>
    </linearGradient>
    <linearGradient id="liquid" x1="98" y1="133" x2="222" y2="200" gradientUnits="userSpaceOnUse">
      <stop stop-color="#7DD3FC"/>
      <stop offset="1" stop-color="#38BDF8"/>
    </linearGradient>
    <filter id="drop" x="66" y="20" width="188" height="188" filterUnits="userSpaceOnUse" color-interpolation-filters="sRGB">
      <feFlood flood-opacity="0" result="BackgroundImageFix"/>
      <feGaussianBlur in="BackgroundImageFix" stdDeviation="20"/>
      <feComposite in2="SourceAlpha" operator="in" result="effect1_backgroundBlur"/>
      <feBlend mode="normal" in="SourceGraphic" in2="effect1_backgroundBlur" result="shape"/>
    </filter>
  </defs>
  <rect width="320" height="220" rx="32" fill="url(#bg)"/>
  <g filter="url(#drop)">
    <path d="M160 46c-8.8 0-16 7.2-16 16v32l-32 52c-7 11.2 1.2 25 13.9 25h68.2c12.6 0 21-13.8 14-25l-32-52V62c0-8.8-7.2-16-16-16h-0.1z" stroke="rgba(255,255,255,0.8)" stroke-width="4" fill="rgba(15,23,42,0.25)"/>
    <path d="M132 146c-6.6 0-10.7 7.3-7.2 13l8.2 13.6c1.5 2.5 4.2 4 7.1 4h50c2.8 0 5.4-1.4 6.9-3.7l9.6-14.8c3.9-6-0.4-13.9-7.5-13.9H132z" fill="url(#liquid)"/>
    <path d="M144 78h32" stroke="rgba(255,255,255,0.8)" stroke-width="4" stroke-linecap="round"/>
    <circle cx="200" cy="80" r="8" fill="rgba(255,255,255,0.4)"/>
  </g>
</svg>
